<?xml version="1.0" encoding="utf-8"?>
<!-- Generator: Adobe Illustrator 23.0.1, SVG Export Plug-In . SVG Version: 6.00 Build 0)  -->
<svg version="1.1" id="Layer_1" xmlns="http://www.w3.org/2000/svg" xmlns:xlink="http://www.w3.org/1999/xlink" x="0px" y="0px"
	 viewBox="0 0 510 150" style="enable-background:new 0 0 510 150;" xml:space="preserve">
<style type="text/css">
	.st0{fill:#E81010;}
</style>
<path class="st0" d="M55.78,50.81c4.02-10.93,10.58-20.02,19.73-27.25s20.03-11.88,32.64-13.95c14.79-2.42,28.41-0.88,40.9,4.63
	s22.15,14.41,29,26.64l-30.52,5c-4.17-5.61-9.3-9.51-15.35-11.67c-6.05-2.16-12.7-2.65-19.9-1.47c-7.71,1.27-14.24,4.14-19.59,8.59
	c-5.35,4.47-9.11,10.16-11.27,17.07s-2.45,14.65-0.84,23.2c1.56,8.45,4.63,15.6,9.18,21.47c4.53,5.87,10.13,10.07,16.81,12.57
	c6.64,2.5,13.84,3.13,21.54,1.86c7.22-1.15,13.27-3.77,18.17-7.78c4.92-4.01,8.32-9.33,10.21-15.95l30.52-5
	c-1.97,13.82-7.82,25.27-17.51,34.35c-9.71,9.09-22,14.84-36.91,17.3c-12.63,2.07-24.56,1.15-35.76-2.74
	c-11.19-3.91-20.67-10.34-28.38-19.27c-7.74-8.95-12.76-19.72-15.1-32.32C50.93,73.51,51.78,61.74,55.78,50.81z"/>
<path d="M31.08,42.27"/>
</svg>
